# xmcd CD database file
#
# Track frame offsets:
#	150
#	35696
#	61101
#	85545
#	118295
#	162621
#	190018
#	219169
#	243324
#	284034
#	311333
#
# Disc length: 4541 seconds
#
# Revision: 0
# Processed by: cddbd v1.5.2PL0 Copyright (c) Steve Scherf et al.
# Submitted via: CDex 1.70beta2
#
DISCID=9711bb0b
DTITLE=PIRINEOS JAZZ ORCHESTRA and RANDY BRECKER - Transatlantic connection
DYEAR=2008
DGENRE=Jazz
TTITLE0=Above and Below
TTITLE1=Nada Especial
TTITLE2=Ez Da Posible
TTITLE3=My Ideal
TTITLE4=Harpoon
TTITLE5=The Way Up
TTITLE6=Free Fall
TTITLE7=Miniatura
TTITLE8=Cantaloupe Island
TTITLE9=Skylark
TTITLE10=Young and Fine
EXTD=YEAR: 2008
EXTT0=
EXTT1=
EXTT2=
EXTT3=
EXTT4=
EXTT5=
EXTT6=
EXTT7=
EXTT8=
EXTT9=
EXTT10=
PLAYORDER=
